<svg width="110" height="110" xmlns="http://www.w3.org/2000/svg">

 <g>
  <title>background</title>
  <rect fill="none" id="canvas_background" height="402" width="582" y="-1" x="-1"/>
 </g>
 <g>
  <title>Layer 1</title>
  <circle id="svg_2" fill="#25B7D3" r="55" cy="55" cx="55"/>
  <path id="svg_4" fill="#FFFFFF" d="m83,80c-0.615,-1.333 -1.698,-2.394 -3.043,-2.982l-14.957,-4.018l0,-5.001l-3.243,3.241c-1.125,1.125 -2.651,1.757 -4.242,1.757l-2.515,0l-2.516,0c-1.591,0 -3.116,-0.632 -4.242,-1.757l-3.242,-3.241l0,5.001l-14.957,4.018c-1.345,0.588 -2.428,1.649 -3.043,2.982l-4,7l32,0l32,0l-4,-7z"/>
  <path id="svg_5" fill="#BF8662" d="m70,49c-0.423,0 -0.741,0.102 -1.004,0.243c-0.007,-0.767 0.034,-1.515 0,-2.243l-27.933,0c-0.045,0.965 -0.062,1.966 -0.063,3l0,12.343c0,1.061 0.422,2.079 1.172,2.829l6.071,6.068c1.125,1.125 2.651,1.757 4.242,1.757l2.515,0l2.516,0c1.591,0 3.116,-0.632 4.242,-1.757l6.071,-6.068c0.75,-0.75 1.172,-1.768 1.172,-2.829l0,-3.53c2.226,-0.873 3,-4.66 3,-7.59c-0.001,-1.112 -1.001,-2.223 -2.001,-2.223z"/>
  <circle id="svg_7" fill="#F3B607" r="2" cy="84" cx="55"/>
  <circle id="svg_9" fill="#F3B607" r="2" cy="77" cx="55"/>
  <path id="svg_10" fill="#CC9978" d="m41.063,47c-0.034,0.728 -0.052,1.476 -0.059,2.243c-0.263,-0.141 -0.581,-0.243 -1.004,-0.243c-1,0 -2,1.111 -2,2.222c0,2.931 0.774,6.717 3,7.59l0,3.53c0,1.061 0.422,2.079 1.172,2.829l6.071,6.068c1.125,1.125 2.651,1.757 4.242,1.757l2.515,0l0,-25.996l-13.937,0z"/>
  <path id="svg_12" fill="#9C6144" d="m51,62l8,0c0,0 0,3 -4,3s-4,-3 -4,-3z"/>
  <path id="svg_14" fill="#3E3E3F" d="m51.994,50.997c0,-1.104 -0.896,-2 -2,-2c-0.002,0 -0.004,0 -0.006,0c0.001,0.021 0.006,0.041 0.006,0.062c0,1.103 -0.892,1.996 -1.994,2c0.033,1.075 0.91,1.938 1.994,1.938c1.104,0 2,-0.895 2,-2z"/>
  <path id="svg_16" fill="#3E3E3F" d="m61.987,50.997c0,-1.104 -0.896,-2 -2,-2c-0.002,0 -0.004,0 -0.006,0c0.001,0.021 0.006,0.041 0.006,0.062c0,1.103 -0.892,1.996 -1.994,2c0.033,1.075 0.91,1.938 1.994,1.938c1.105,0 2,-0.895 2,-2z"/>
  <path id="svg_19" fill="#F1F2F2" d="m72,31.5c0,-3.59 -2.91,-6.5 -6.5,-6.5c-1.502,0 -2.882,0.515 -3.983,1.371c-1.45,-2.038 -3.826,-3.371 -6.517,-3.371s-5.067,1.333 -6.517,3.371c-1.101,-0.856 -2.481,-1.371 -3.983,-1.371c-3.59,0 -6.5,2.91 -6.5,6.5c0,2.3 1.198,4.316 3,5.472l0,10.028l28,0l0,-10.028c1.802,-1.156 3,-3.172 3,-5.472z"/>
  <rect id="svg_21" fill="#E2E4E5" y="36" x="61" width="2" height="9"/>
  <path id="svg_23" fill="#FFFFFF" d="m55,47l0,-24c-2.691,0 -5.067,1.333 -6.517,3.371c-1.101,-0.856 -2.481,-1.371 -3.983,-1.371c-3.59,0 -6.5,2.91 -6.5,6.5c0,2.3 1.198,4.316 3,5.472l0,10.028l14,0z"/>
  <rect id="svg_25" fill="#E2E4E5" y="36" x="54" width="2" height="9"/>
  <rect id="svg_27" fill="#E2E4E5" y="36" x="47" width="2" height="9"/>
  <polygon id="svg_28" fill="#3E3E3F" points="66,47 66,53 67,53 69,49 69,47   "/>
  <polygon id="svg_29" fill="#3E3E3F" points="41,47 41,49 43,53 44,53 44,47   "/>
  <path id="svg_32" fill="#3E3E3F" d="m55,60c-2,-3 -7,-1 -9,2c3,0 9,0 9,0l0,-2z"/>
  <path id="svg_34" fill="#3E3E3F" d="m55,60c2,-3 7,-1 9,2c-3,0 -9,0 -9,0l0,-2z"/>
 </g>
</svg>